<svg width="26" height="11" viewBox="0 0 26 11" fill="none" xmlns="http://www.w3.org/2000/svg">
<path fill-rule="evenodd" clip-rule="evenodd" d="M23.3199 2.5C23.3199 1.11929 22.2007 0 20.8199 0H2.93994C1.55923 0 0.439941 1.11929 0.439941 2.5V8C0.439941 9.38071 1.55923 10.5 2.93994 10.5H19.6474H20.8199C22.2007 10.5 23.3199 9.38071 23.3199 8V2.5ZM22.2799 3C22.2799 1.89543 21.3845 1 20.2799 1H3.47995C2.37538 1 1.47995 1.89543 1.47995 3V7.5C1.47995 8.60457 2.37538 9.5 3.47995 9.5H18.6074H20.2799C21.3845 9.5 22.2799 8.60457 22.2799 7.5V3Z" fill="white"/>
<path fill-rule="evenodd" clip-rule="evenodd" d="M24.3599 7.374C25.257 7.15198 25.9199 6.36893 25.9199 5.437C25.9199 4.50507 25.257 3.72201 24.3599 3.5V7.374Z" fill="white"/>
<path d="M3.52002 2C2.96774 2 2.52002 2.44772 2.52002 3V7.5C2.52002 8.05228 2.96773 8.5 3.52002 8.5H20.24C20.7923 8.5 21.24 8.05228 21.24 7.5V3C21.24 2.44772 20.7923 2 20.24 2H3.52002Z" fill="white"/>
</svg>
