<svg width="19" height="12" viewBox="0 0 19 12" fill="none" xmlns="http://www.w3.org/2000/svg">
<path fill-rule="evenodd" clip-rule="evenodd" d="M18.0931 1.66663C18.0931 1.11434 17.6275 0.666626 17.0531 0.666626H16.0131C15.4387 0.666626 14.9731 1.11434 14.9731 1.66663V10.3333C14.9731 10.8856 15.4387 11.3333 16.0131 11.3333H17.0531C17.6275 11.3333 18.0931 10.8856 18.0931 10.3333V1.66663ZM12.1998 3C12.7742 3 13.2398 3.44772 13.2398 4V10.3333C13.2398 10.8856 12.7742 11.3333 12.1998 11.3333H11.1598C10.5854 11.3333 10.1198 10.8856 10.1198 10.3333V4C10.1198 3.44772 10.5854 3 11.1598 3H12.1998ZM8.38638 6.33325C8.38638 5.78097 7.92076 5.33325 7.34637 5.33325H6.30637C5.73199 5.33325 5.26636 5.78097 5.26636 6.33325V10.3333C5.26636 10.8855 5.73199 11.3333 6.30637 11.3333H7.34637C7.92076 11.3333 8.38638 10.8855 8.38638 10.3333V6.33325ZM3.53308 8.33325C3.53308 7.78097 3.06746 7.33325 2.49308 7.33325H1.45308C0.878709 7.33325 0.413086 7.78097 0.413086 8.33325V10.3333C0.413086 10.8855 0.878709 11.3333 1.45308 11.3333H2.49308C3.06746 11.3333 3.53308 10.8855 3.53308 10.3333V8.33325Z" fill="white"/>
</svg>
