<svg width="17" height="12" viewBox="0 0 17 12" fill="none" xmlns="http://www.w3.org/2000/svg">
<path fill-rule="evenodd" clip-rule="evenodd" d="M14.4545 4.98635C14.5802 5.10422 14.7813 5.10274 14.9051 4.98301L16.1074 3.81635C16.1701 3.75563 16.2051 3.67337 16.2046 3.58779C16.204 3.50221 16.1681 3.42036 16.1046 3.36035C11.7209 -0.679198 4.80511 -0.679198 0.421412 3.36035C0.357912 3.42032 0.321882 3.50214 0.321296 3.58772C0.320711 3.67331 0.355618 3.75558 0.418292 3.81635L1.62088 4.98301C1.74467 5.10292 1.94585 5.1044 2.07155 4.98635C3.74194 3.45945 5.9586 2.60801 8.26336 2.60802C10.5679 2.60811 12.7843 3.45955 14.4545 4.98635ZM11.6892 7.67338C11.8161 7.78936 12.0161 7.78684 12.1399 7.66771L13.3407 6.50104C13.4039 6.43985 13.439 6.35683 13.4381 6.27057C13.4372 6.1843 13.4004 6.10199 13.3359 6.04204C10.4777 3.48566 6.05154 3.48566 3.19341 6.04204C3.12885 6.10199 3.09202 6.18434 3.09117 6.27064C3.09032 6.35693 3.12554 6.43994 3.18891 6.50104L4.38942 7.66771C4.51316 7.78684 4.71314 7.78936 4.84008 7.67338C5.77803 6.85671 6.99807 6.40421 8.26342 6.40371C9.52961 6.40364 10.7506 6.85617 11.6892 7.67338ZM10.5614 8.73104C10.6282 8.78907 10.667 8.87102 10.6689 8.95752C10.6707 9.04403 10.6353 9.12743 10.5711 9.18804L8.4939 11.2037C8.43301 11.2629 8.34999 11.2963 8.26337 11.2963C8.17674 11.2963 8.09372 11.2629 8.03283 11.2037L5.95526 9.18804C5.89108 9.12739 5.85577 9.04396 5.85768 8.95745C5.85958 8.87094 5.89852 8.78903 5.96531 8.73104C7.29191 7.65215 9.23482 7.65215 10.5614 8.73104Z" fill="white"/>
</svg>
